<svg width="25" height="24" viewBox="0 0 25 24" fill="none" xmlns="http://www.w3.org/2000/svg">
<path fill-rule="evenodd" clip-rule="evenodd" d="M16.2702 12.3073C15.1402 12.3073 14.0702 12.5373 13.1702 12.9173C16.3302 13.8373 18.5602 16.0273 18.6102 18.5773C20.2502 18.3573 22.0102 17.7473 22.0102 16.0473C22.0102 14.0173 19.3802 12.3073 16.2702 12.3073Z" fill="white"/>
<path fill-rule="evenodd" clip-rule="evenodd" d="M16.2402 10.8673H16.2702C18.4002 10.8673 20.1302 9.13734 20.1302 7.00734C20.1302 4.87734 18.4002 3.14734 16.2702 3.14734C15.8502 3.14734 15.4502 3.21734 15.0702 3.33734C15.7602 4.35734 16.1602 5.58734 16.1602 6.90734C16.1602 8.29734 15.7102 9.58734 14.9502 10.6373C15.3502 10.7873 15.7902 10.8673 16.2402 10.8673Z" fill="white"/>
<path fill-rule="evenodd" clip-rule="evenodd" d="M9.79875 13.9465C5.83675 13.9465 2.48975 16.1115 2.48975 18.6745C2.48975 21.6135 6.66075 21.9535 9.79875 21.9535C11.6067 21.9535 17.1077 21.9535 17.1077 18.6545C17.1077 16.1025 13.7607 13.9465 9.79875 13.9465Z" fill="white"/>
<path fill-rule="evenodd" clip-rule="evenodd" d="M9.76749 11.7756H9.79749C12.4805 11.7756 14.6625 9.59363 14.6625 6.91163C14.6625 4.22863 12.4805 2.04663 9.79749 2.04663C7.11649 2.04663 4.93449 4.22863 4.93449 6.90963C4.92949 8.20463 5.42849 9.42363 6.34149 10.3426C7.25449 11.2616 8.47049 11.7706 9.76749 11.7756Z" fill="white"/>
</svg>
