<svg width="25" height="25" viewBox="0 0 25 25" fill="none" xmlns="http://www.w3.org/2000/svg">
<path fill-rule="evenodd" clip-rule="evenodd" d="M16.5199 11.1997L13.5899 14.9797C13.4699 15.1397 13.2899 15.2397 13.0899 15.2597C12.8899 15.2897 12.6899 15.2297 12.5299 15.1097L9.70989 12.8997L7.17989 16.1897C7.03989 16.3797 6.80989 16.4797 6.58989 16.4797C6.42989 16.4797 6.26989 16.4297 6.12989 16.3197C5.79989 16.0697 5.73989 15.5997 5.98989 15.2697L8.98989 11.3797C9.10989 11.2197 9.28989 11.1197 9.48989 11.0997C9.68989 11.0697 9.88989 11.1297 10.0499 11.2497L12.8699 13.4597L15.3299 10.2797C15.5899 9.94971 16.0599 9.88971 16.3899 10.1497C16.7099 10.3997 16.7699 10.8697 16.5199 11.1997ZM21.6199 8.80971C21.0899 9.05971 20.4899 9.19971 19.8699 9.19971C17.5299 9.19971 15.6199 7.28971 15.6199 4.94971C15.6199 4.30971 15.7599 3.70971 16.0199 3.16971C14.9199 2.93971 13.6399 2.82971 12.1599 2.82971C4.94989 2.82971 2.38989 5.37971 2.38989 12.5997C2.38989 19.8197 4.94989 22.3697 12.1599 22.3697C19.3799 22.3697 21.9399 19.8197 21.9399 12.5997C21.9399 11.1497 21.8399 9.88971 21.6199 8.80971Z" fill="white"/>
<path fill-rule="evenodd" clip-rule="evenodd" d="M19.8699 7.19971C20.2899 7.19971 20.6899 7.07971 21.0199 6.87971C21.6699 6.48971 22.1099 5.76971 22.1099 4.94971C22.1099 3.70971 21.1099 2.69971 19.8699 2.69971C19.0599 2.69971 18.3499 3.12971 17.9499 3.77971C17.7399 4.11971 17.6199 4.51971 17.6199 4.94971C17.6199 6.18971 18.6299 7.19971 19.8699 7.19971Z" fill="white"/>
</svg>
