<svg width="25" height="24" viewBox="0 0 25 24" fill="none" xmlns="http://www.w3.org/2000/svg">
<path fill-rule="evenodd" clip-rule="evenodd" d="M10.0332 14.0304C5.92918 14.0304 2.46118 16.2794 2.46118 18.9414C2.46118 21.9774 6.78218 22.3284 10.0332 22.3284C11.9062 22.3284 17.6052 22.3284 17.6052 18.9214C17.6052 16.2694 14.1372 14.0304 10.0332 14.0304Z" fill="white"/>
<path fill-rule="evenodd" clip-rule="evenodd" d="M10.0009 11.7364H10.0329C12.8089 11.7364 15.0659 9.47839 15.0659 6.70339C15.0659 3.92839 12.8089 1.67139 10.0329 1.67139C7.25785 1.67139 4.99985 3.92839 4.99985 6.70139C4.98985 9.46739 7.23185 11.7264 10.0009 11.7364Z" fill="white"/>
<path fill-rule="evenodd" clip-rule="evenodd" d="M21.289 9.40435H19.992V8.14935C19.992 7.73535 19.656 7.39935 19.242 7.39935C18.828 7.39935 18.492 7.73535 18.492 8.14935V9.40435H17.199C16.785 9.40435 16.449 9.74035 16.449 10.1544C16.449 10.5684 16.785 10.9044 17.199 10.9044H18.492V12.1594C18.492 12.5734 18.828 12.9094 19.242 12.9094C19.656 12.9094 19.992 12.5734 19.992 12.1594V10.9044H21.289C21.703 10.9044 22.039 10.5684 22.039 10.1544C22.039 9.74035 21.703 9.40435 21.289 9.40435Z" fill="white"/>
</svg>
