<svg width="25" height="24" viewBox="0 0 25 24" fill="none" xmlns="http://www.w3.org/2000/svg">
<path fill-rule="evenodd" clip-rule="evenodd" d="M20.75 11.9998C20.75 8.80181 15.273 5.68781 14.175 5.09581C13.688 4.83281 13.082 5.01481 12.82 5.50181C12.559 5.98681 12.739 6.59381 13.226 6.85581C15.057 7.84481 17.48 9.58181 18.385 11.0008H4.75C4.197 11.0008 3.75 11.4478 3.75 12.0008C3.75 12.5528 4.197 13.0008 4.75 13.0008H18.383C17.477 14.4198 15.056 16.1568 13.226 17.1448C12.739 17.4078 12.559 18.0138 12.82 18.4998C13.001 18.8348 13.346 19.0248 13.701 19.0248C13.861 19.0248 14.024 18.9868 14.175 18.9048C15.272 18.3128 20.745 15.2008 20.75 12.0028C20.75 12.0018 20.75 11.9998 20.75 11.9998Z" fill="white"/>
</svg>
