<svg width="25" height="24" viewBox="0 0 25 24" fill="none" xmlns="http://www.w3.org/2000/svg">
<path fill-rule="evenodd" clip-rule="evenodd" d="M15.2374 6.9572C14.4614 6.6362 13.5954 6.3802 13.0634 6.9142C12.6194 7.3602 12.3664 9.0872 12.3014 10.9992H4.07544C3.52244 10.9992 3.07544 11.4462 3.07544 11.9992C3.07544 12.5522 3.52244 12.9992 4.07544 12.9992H12.3024C12.3674 14.9072 12.6204 16.6282 13.0644 17.0722C13.2984 17.3062 13.5954 17.3942 13.9184 17.3942C14.3714 17.3942 14.8734 17.2202 15.3124 17.0382C16.8834 16.3882 21.4244 13.6422 21.4244 11.9922C21.4244 10.2892 16.6774 7.5542 15.2374 6.9572Z" fill="white"/>
</svg>
