<svg width="25" height="25" viewBox="0 0 25 25" fill="none" xmlns="http://www.w3.org/2000/svg">
<path fill-rule="evenodd" clip-rule="evenodd" d="M15.1893 13.0142H15.1433C14.5913 13.0142 14.1433 12.5662 14.1433 12.0142C14.1433 11.4622 14.5913 11.0142 15.1433 11.0142C15.6973 11.0142 16.1663 11.4722 16.1663 12.0142C16.1663 12.5752 15.7373 13.0142 15.1893 13.0142ZM8.7303 6.91119C8.8533 6.18119 9.1913 5.50619 9.7283 4.97419C10.4013 4.30719 11.2933 3.94019 12.2433 3.94019H12.2603C14.0243 3.94019 15.4833 5.22819 15.7703 6.91119C14.7383 6.77219 13.5803 6.69519 12.2503 6.69519C10.9213 6.69519 9.7623 6.77219 8.7303 6.91119ZM9.3583 13.0142H9.3123C8.7613 13.0142 8.3123 12.5662 8.3123 12.0142C8.3123 11.4622 8.7613 11.0142 9.3123 11.0142C9.8673 11.0142 10.3353 11.4722 10.3353 12.0142C10.3353 12.5752 9.9063 13.0142 9.3583 13.0142ZM20.9173 9.24719C20.1773 8.28219 18.9813 7.61219 17.2993 7.19819C17.1343 4.55019 14.9493 2.44019 12.2633 2.44019H12.2403C10.8953 2.44019 9.6283 2.96119 8.6723 3.90919C7.7843 4.78919 7.2833 5.94419 7.2023 7.19819C5.5193 7.61119 4.3233 8.28119 3.5833 9.24719C2.5733 10.5662 2.3983 12.3792 3.0493 14.7912C4.5523 20.3672 5.4343 22.6292 12.2503 22.6292C19.0653 22.6292 19.9473 20.3672 21.4513 14.7912C22.1013 12.3792 21.9273 10.5662 20.9173 9.24719Z" fill="white"/>
</svg>
