<svg width="25" height="25" viewBox="0 0 25 25" fill="none" xmlns="http://www.w3.org/2000/svg">
<path fill-rule="evenodd" clip-rule="evenodd" d="M16.78 7.14474V7.76474C16.32 7.66474 15.82 7.57474 15.28 7.51474V7.14474C15.28 5.47474 13.93 4.10474 12.26 4.10474H12.25C10.58 4.10474 9.21997 5.46474 9.21997 7.12474V7.51474C8.67997 7.57474 8.17997 7.66474 7.71997 7.76474V7.12474C7.71997 4.63474 9.75997 2.60474 12.25 2.60474H12.26C14.76 2.61474 16.79 4.64474 16.78 7.14474Z" fill="white"/>
<path fill-rule="evenodd" clip-rule="evenodd" d="M21.77 14.9147C21.77 20.4947 19.28 22.4647 12.25 22.4647C5.21998 22.4647 2.72998 20.4947 2.72998 14.9147C2.72998 10.7647 4.10997 8.60474 7.71997 7.76474L7.71998 10.1747C7.71998 10.5947 8.04998 10.9247 8.46998 10.9247C8.87998 10.9247 9.21998 10.5947 9.21998 10.1747L9.21997 7.51474C10.12 7.40474 11.13 7.35474 12.25 7.35474C13.37 7.35474 14.38 7.40474 15.28 7.51474L15.28 10.1747C15.28 10.5947 15.62 10.9247 16.03 10.9247C16.44 10.9247 16.78 10.5947 16.78 10.1747L16.78 7.76474C20.39 8.60474 21.77 10.7647 21.77 14.9147Z" fill="white"/>
</svg>
