<svg width="25" height="25" viewBox="0 0 25 25" fill="none" xmlns="http://www.w3.org/2000/svg">
<path fill-rule="evenodd" clip-rule="evenodd" d="M19.845 6.10497L22.315 3.63497C22.608 3.34197 22.608 2.86797 22.315 2.57497C22.022 2.28197 21.547 2.28197 21.254 2.57497L18.784 5.04397L16.315 2.57497C16.022 2.28197 15.547 2.28197 15.254 2.57497C14.961 2.86797 14.961 3.34197 15.254 3.63497L17.724 6.10497L15.254 8.57497C14.961 8.86797 14.961 9.34197 15.254 9.63497C15.401 9.78197 15.592 9.85497 15.784 9.85497C15.977 9.85497 16.168 9.78197 16.315 9.63497L18.784 7.16597L21.254 9.63497C21.401 9.78197 21.592 9.85497 21.784 9.85497C21.977 9.85497 22.168 9.78197 22.315 9.63497C22.608 9.34197 22.608 8.86797 22.315 8.57497L19.845 6.10497Z" fill="white"/>
<path fill-rule="evenodd" clip-rule="evenodd" d="M15.8079 14.4517C14.8099 14.9377 13.9469 15.3597 11.6999 13.1127C9.45387 10.8657 9.87287 10.0027 10.3609 9.00369C11.0649 7.55569 11.3499 6.23869 8.14787 3.60169C7.38487 2.97769 6.56287 2.74069 5.68887 2.90369C3.82887 3.24969 2.55787 5.28669 2.55987 5.28669C1.74887 6.42369 0.636873 9.84169 7.80387 17.0077C12.5159 21.7197 15.6079 22.8527 17.4839 22.8527C18.4609 22.8527 19.1099 22.5457 19.4859 22.2767C19.5059 22.2637 21.5749 20.9597 21.9109 19.1087C22.0669 18.2447 21.8309 17.4227 21.2079 16.6617C18.5749 13.4647 17.2569 13.7467 15.8079 14.4517Z" fill="white"/>
</svg>
