<svg width="25" height="25" viewBox="0 0 25 25" fill="none" xmlns="http://www.w3.org/2000/svg">
<path fill-rule="evenodd" clip-rule="evenodd" d="M14.8608 2.36006C14.4478 2.30806 14.0778 2.61106 14.0328 3.02206C13.9868 3.43406 14.2838 3.80406 14.6948 3.85006C18.0718 4.22506 20.6938 6.84506 21.0728 10.2211C21.1158 10.6041 21.4398 10.8871 21.8168 10.8871C21.8448 10.8871 21.8738 10.8851 21.9018 10.8821C22.3128 10.8371 22.6088 10.4651 22.5628 10.0531C22.1058 5.97706 18.9388 2.81306 14.8608 2.36006Z" fill="white"/>
<path fill-rule="evenodd" clip-rule="evenodd" d="M17.5415 10.2917C17.6115 10.6497 17.9255 10.8977 18.2765 10.8977C18.3245 10.8977 18.3725 10.8937 18.4215 10.8847C18.8275 10.8057 19.0935 10.4107 19.0145 10.0047C18.6075 7.92266 17.0005 6.31566 14.9205 5.91166C14.5235 5.83266 14.1205 6.09866 14.0415 6.50566C13.9625 6.91166 14.2285 7.30566 14.6355 7.38466C16.1115 7.67166 17.2535 8.81266 17.5415 10.2917Z" fill="white"/>
<path fill-rule="evenodd" clip-rule="evenodd" d="M15.7759 14.4519C14.7779 14.9379 13.9139 15.3599 11.6669 13.1129C9.42088 10.8659 9.84088 10.0029 10.3279 9.00387C11.0329 7.55587 11.3179 6.23887 8.11588 3.60187C7.35088 2.97687 6.52088 2.73687 5.65388 2.90487C3.82088 3.24787 2.52588 5.28787 2.52788 5.28787C1.71588 6.42387 0.603876 9.83987 7.77088 17.0079C12.4849 21.7229 15.5769 22.8539 17.4529 22.8539C18.4289 22.8539 19.0759 22.5479 19.4499 22.2789C19.4699 22.2669 21.5279 20.9919 21.8759 19.1229C22.0379 18.2539 21.8019 17.4269 21.1759 16.6619C18.5399 13.4629 17.2229 13.7469 15.7759 14.4519Z" fill="white"/>
</svg>
