<svg width="25" height="24" viewBox="0 0 25 24" fill="none" xmlns="http://www.w3.org/2000/svg">
<path fill-rule="evenodd" clip-rule="evenodd" d="M17.1716 10.1271C16.7576 10.1271 16.4176 9.7911 16.4176 9.3771C16.4176 8.9631 16.7486 8.6271 17.1626 8.6271H17.1716C17.5856 8.6271 17.9216 8.9631 17.9216 9.3771C17.9216 9.7911 17.5856 10.1271 17.1716 10.1271ZM12.2506 16.7711C10.1026 16.7711 8.35558 15.0231 8.35558 12.8751C8.35558 10.7281 10.1026 8.9811 12.2506 8.9811C14.3986 8.9811 16.1456 10.7281 16.1456 12.8751C16.1456 15.0231 14.3986 16.7711 12.2506 16.7711ZM17.8696 6.0031C17.7006 5.9501 17.4546 5.8391 17.2476 5.6121C17.1616 5.5181 17.0456 5.2831 16.9336 5.0571C16.6316 4.4461 16.2186 3.6101 15.3876 3.2601C14.3196 2.8121 10.2196 2.8101 9.11658 3.2581C8.29658 3.5951 7.87858 4.4351 7.57358 5.0481C7.45858 5.2781 7.34058 5.5161 7.25258 5.6121C7.04658 5.8401 6.80058 5.9501 6.64758 5.9991C3.35058 6.9111 2.74658 9.0541 2.74658 12.9441C2.74658 18.5681 4.11858 21.0771 12.2506 21.0771C20.3816 21.0771 21.7536 18.5681 21.7536 12.9441C21.7536 9.0541 21.1506 6.9111 17.8696 6.0031Z" fill="white"/>
<path fill-rule="evenodd" clip-rule="evenodd" d="M12.2507 10.4806C10.9297 10.4806 9.85571 11.5546 9.85571 12.8756C9.85571 14.1966 10.9297 15.2706 12.2507 15.2706C13.5717 15.2706 14.6457 14.1966 14.6457 12.8756C14.6457 11.5546 13.5717 10.4806 12.2507 10.4806Z" fill="white"/>
</svg>
