<svg width="25" height="25" viewBox="0 0 25 25" fill="none" xmlns="http://www.w3.org/2000/svg">
<path fill-rule="evenodd" clip-rule="evenodd" d="M17.4789 17.4526C17.4789 17.8666 17.1429 18.2026 16.7289 18.2026C16.3149 18.2026 15.9789 17.8666 15.9789 17.4526V14.2956C15.9789 13.8816 16.3149 13.5456 16.7289 13.5456C17.1429 13.5456 17.4789 13.8816 17.4789 14.2956V17.4526ZM12.9999 17.4526C12.9999 17.8666 12.6639 18.2026 12.2499 18.2026C11.8359 18.2026 11.4999 17.8666 11.4999 17.4526V7.55461C11.4999 7.13961 11.8359 6.80461 12.2499 6.80461C12.6639 6.80461 12.9999 7.13961 12.9999 7.55461V17.4526ZM8.44594 17.4526C8.44594 17.8666 8.10994 18.2026 7.69594 18.2026C7.28194 18.2026 6.94594 17.8666 6.94594 17.4526V10.7586C6.94594 10.3446 7.28194 10.0086 7.69594 10.0086C8.10994 10.0086 8.44594 10.3446 8.44594 10.7586V17.4526ZM12.2499 2.29761C4.69094 2.29761 2.01294 4.97561 2.01294 12.5346C2.01294 20.0936 4.69094 22.7716 12.2499 22.7716C19.8079 22.7716 22.4869 20.0936 22.4869 12.5346C22.4869 4.97561 19.8079 2.29761 12.2499 2.29761Z" fill="white"/>
</svg>
