<svg width="25" height="24" viewBox="0 0 25 24" fill="none" xmlns="http://www.w3.org/2000/svg">
<path fill-rule="evenodd" clip-rule="evenodd" d="M12.8801 2.82007C12.8801 2.41007 12.5401 2.07007 12.1301 2.07007C11.7201 2.07007 11.3801 2.41007 11.3801 2.82007V6.71007C11.8801 6.69007 12.3801 6.69007 12.8801 6.70007V2.82007Z" fill="white"/>
<path fill-rule="evenodd" clip-rule="evenodd" d="M16.67 6.83007H16.65C15.4 6.75007 14.1501 6.71007 12.8801 6.70007L12.88 13.0501L14.52 11.4001C14.81 11.1101 15.29 11.1101 15.58 11.4001C15.87 11.7001 15.87 12.1701 15.58 12.4601L12.66 15.3901C12.59 15.4601 12.51 15.5101 12.42 15.5501C12.33 15.5901 12.23 15.6101 12.13 15.6101C12.03 15.6101 11.93 15.5901 11.84 15.5501C11.75 15.5101 11.67 15.4601 11.6 15.3901L8.68 12.4601C8.39 12.1701 8.39 11.7001 8.68 11.4001C8.97 11.1101 9.45 11.1101 9.74 11.4001L11.38 13.0501L11.3801 6.71007C10.1901 6.71007 9.01 6.76007 7.83 6.83007C3.8 7.20007 2.5 9.03007 2.5 14.3301C2.5 21.9301 5.35 21.9301 12.25 21.9301C19.15 21.9301 22 21.9301 22 14.3301C22 9.03007 20.7 7.20007 16.67 6.83007Z" fill="white"/>
</svg>
