<svg width="25" height="25" viewBox="0 0 25 25" fill="none" xmlns="http://www.w3.org/2000/svg">
<path fill-rule="evenodd" clip-rule="evenodd" d="M19.273 3.50919C17.778 3.10419 15.574 3.10619 12.518 3.10519H11.979C8.932 3.09419 6.72 3.10419 5.226 3.50919C3.537 3.96719 2.75 4.98319 2.75 6.70519C2.75 8.84319 4.677 10.4812 6.54 12.0652C8.182 13.4592 9.733 14.7782 9.733 16.2032C9.733 19.6292 9.733 22.1052 12.253 22.1052C14.767 22.1052 14.767 19.6292 14.767 16.2032C14.767 14.7782 16.317 13.4592 17.96 12.0652C19.823 10.4812 21.75 8.84319 21.75 6.70519C21.75 4.98319 20.962 3.96719 19.273 3.50919Z" fill="white"/>
</svg>
