<svg width="25" height="25" viewBox="0 0 25 25" fill="none" xmlns="http://www.w3.org/2000/svg">
<path fill-rule="evenodd" clip-rule="evenodd" d="M9.088 7.12725C10.334 7.12725 11.349 8.14225 11.349 9.38825C11.349 10.6342 10.334 11.6482 9.088 11.6482C7.842 11.6482 6.827 10.6342 6.827 9.38825C6.827 8.14225 7.842 7.12725 9.088 7.12725ZM6.726 15.2302C7.911 14.6742 8.869 15.0182 9.796 15.3522C10.495 15.6042 11.219 15.8642 12.22 15.8642C12.998 15.8642 13.457 15.1772 14.12 14.0432C14.78 12.9162 15.601 11.5132 17.259 11.5132C19.563 11.5132 20.991 12.9662 21.959 14.0372C21.984 13.5792 22 13.1052 22 12.6042C22 5.40525 19.448 2.85425 12.25 2.85425C5.052 2.85425 2.5 5.40525 2.5 12.6042C2.5 15.2892 2.856 17.3272 3.676 18.8282C4.192 17.8112 5.314 15.8932 6.726 15.2302Z" fill="white"/>
<path fill-rule="evenodd" clip-rule="evenodd" d="M21.4815 15.7356C21.3345 15.5846 21.1785 15.4116 21.0115 15.2246C20.1275 14.2396 19.0265 13.0126 17.2585 13.0126C16.5145 13.0126 16.0655 13.6886 15.4155 14.8006C14.7465 15.9436 13.9155 17.3646 12.2195 17.3646C10.9565 17.3646 10.0315 17.0316 9.2875 16.7626C8.4115 16.4466 7.9595 16.3066 7.3645 16.5876C6.2325 17.1196 5.0965 19.2656 4.7545 20.0476C4.7345 20.0956 4.7035 20.1346 4.6745 20.1766C6.2115 21.7156 8.6495 22.3536 12.2505 22.3536C18.2095 22.3536 20.9775 20.5956 21.7565 15.9096C21.6555 15.8716 21.5615 15.8176 21.4815 15.7356Z" fill="white"/>
</svg>
