<svg width="25" height="25" viewBox="0 0 25 25" fill="none" xmlns="http://www.w3.org/2000/svg">
<path fill-rule="evenodd" clip-rule="evenodd" d="M16.0596 9.34841C15.0136 9.10541 13.7526 8.99441 12.2496 8.99441C10.7466 8.99441 9.4856 9.10541 8.4396 9.34841V7.91641C8.4726 5.84241 10.1236 4.19741 12.1996 4.17041C13.2306 4.14241 14.1816 4.54241 14.9106 5.25341C15.6386 5.96441 16.0476 6.91541 16.0596 7.92441V9.34841ZM12.9996 17.0474C12.9996 17.4614 12.6636 17.7974 12.2496 17.7974C11.8356 17.7974 11.4996 17.4614 11.4996 17.0474V14.8264C11.4996 14.4124 11.8356 14.0764 12.2496 14.0764C12.6636 14.0764 12.9996 14.4124 12.9996 14.8264V17.0474ZM17.5596 9.86141V7.91541C17.5416 6.49641 16.9736 5.16941 15.9566 4.17941C14.9416 3.18941 13.5876 2.69841 12.1796 2.67041C9.2886 2.70741 6.9866 5.00141 6.9396 7.90541V9.86241C4.9056 10.8324 4.0896 12.6834 4.0896 15.7654C4.0896 20.7654 6.2256 22.5374 12.2496 22.5374C18.2746 22.5374 20.4106 20.7654 20.4106 15.7654C20.4106 12.6834 19.5936 10.8314 17.5596 9.86141Z" fill="white"/>
</svg>
