<svg width="25" height="24" viewBox="0 0 25 24" fill="none" xmlns="http://www.w3.org/2000/svg">
<path fill-rule="evenodd" clip-rule="evenodd" d="M19.8774 13.9624C19.0304 12.0994 19.0524 11.3984 19.0914 10.1244C19.1014 9.82342 19.1114 9.49642 19.1114 9.12142C19.1114 6.14442 16.9824 1.95142 12.2504 1.95142C7.51836 1.95142 5.38936 6.14442 5.38936 9.12142C5.38936 9.49542 5.39936 9.82342 5.40936 10.1244C5.44836 11.3984 5.46936 12.0994 4.61336 13.9874C4.24736 14.9314 4.29136 15.7464 4.74636 16.4104C5.83836 18.0084 8.99836 18.2284 12.2504 18.2284C15.5024 18.2284 18.6624 18.0084 19.7544 16.4104C20.2104 15.7464 20.2544 14.9314 19.8774 13.9624Z" fill="white"/>
<path fill-rule="evenodd" clip-rule="evenodd" d="M14.9477 19.2407C13.3167 19.4217 11.5487 19.4207 9.53865 19.2387C9.23765 19.2147 8.93965 19.3737 8.80165 19.6487C8.66265 19.9247 8.70666 20.2557 8.91165 20.4857C9.81166 21.4927 10.9957 22.0487 12.2457 22.0487H12.2477C13.5007 22.0487 14.6877 21.4937 15.5897 20.4857C15.7967 20.2547 15.8397 19.9187 15.6977 19.6417C15.5547 19.3667 15.2607 19.2127 14.9477 19.2407Z" fill="white"/>
</svg>
