<svg width="25" height="25" viewBox="0 0 25 25" fill="none" xmlns="http://www.w3.org/2000/svg">
<path fill-rule="evenodd" clip-rule="evenodd" d="M15.8279 13.2846H12.9999V16.1086C12.9999 16.5226 12.6639 16.8586 12.2499 16.8586C11.8359 16.8586 11.4999 16.5226 11.4999 16.1086V13.2846H8.67194C8.25794 13.2846 7.92194 12.9486 7.92194 12.5346C7.92194 12.1206 8.25794 11.7846 8.67194 11.7846H11.4999V8.96061C11.4999 8.54661 11.8359 8.21061 12.2499 8.21061C12.6639 8.21061 12.9999 8.54661 12.9999 8.96061V11.7846H15.8279C16.2419 11.7846 16.5779 12.1206 16.5779 12.5346C16.5779 12.9486 16.2419 13.2846 15.8279 13.2846ZM12.2499 2.29761C4.69094 2.29761 2.01294 4.97561 2.01294 12.5346C2.01294 20.0936 4.69094 22.7716 12.2499 22.7716C19.8079 22.7716 22.4869 20.0936 22.4869 12.5346C22.4869 4.97561 19.8079 2.29761 12.2499 2.29761Z" fill="white"/>
</svg>
