<svg width="25" height="25" viewBox="0 0 25 25" fill="none" xmlns="http://www.w3.org/2000/svg">
<path fill-rule="evenodd" clip-rule="evenodd" d="M5.94506 11.1145H18.7551C18.3551 7.62453 16.5251 6.33453 12.3551 6.33453C8.18506 6.33453 6.35506 7.62453 5.94506 11.1145Z" fill="white"/>
<path fill-rule="evenodd" clip-rule="evenodd" d="M22.8151 12.6145H1.68506C1.27506 12.6145 0.935059 12.9545 0.935059 13.3645C0.935059 13.7745 1.27506 14.1145 1.68506 14.1145H2.30506C2.34506 14.7545 2.39506 15.3745 2.49506 15.9145V15.9545C3.12506 19.7145 5.09506 21.6645 8.87506 22.2945C8.91506 22.3045 8.96506 22.3045 9.00506 22.3045C9.36506 22.3045 9.67506 22.0445 9.74506 21.6745C9.80506 21.2745 9.53506 20.8845 9.12506 20.8145C5.93506 20.2845 4.49506 18.8345 3.97506 15.6645C3.96506 15.6445 3.96506 15.6345 3.96506 15.6145C3.88506 15.1645 3.84506 14.6545 3.80506 14.1145H5.90506C6.21506 17.9345 8.01506 19.3345 12.3551 19.3345C16.6951 19.3345 18.4951 17.9345 18.8051 14.1145H20.6851C20.6551 14.6645 20.6051 15.1945 20.5251 15.6645V15.7045C19.9951 18.8545 18.5451 20.2845 15.3751 20.8145C14.9651 20.8845 14.6951 21.2745 14.7651 21.6745C14.8251 22.0445 15.1351 22.3045 15.4951 22.3045C15.5451 22.3045 15.5851 22.3045 15.6251 22.2945C19.4251 21.6645 21.3951 19.6945 22.0151 15.9045V15.8645C22.1051 15.3345 22.1551 14.7345 22.1951 14.1145H22.8151C23.2351 14.1145 23.5651 13.7745 23.5651 13.3645C23.5651 12.9545 23.2351 12.6145 22.8151 12.6145Z" fill="white"/>
<path fill-rule="evenodd" clip-rule="evenodd" d="M3.11006 10.0245C3.15106 10.0315 3.19206 10.0345 3.23206 10.0345C3.59306 10.0345 3.91106 9.77352 3.97106 9.40552C4.48606 6.26152 5.97906 4.76952 9.12206 4.25452C9.53106 4.18752 9.80806 3.80252 9.74106 3.39352C9.67506 2.98452 9.28606 2.70852 8.88006 2.77452C5.08306 3.39552 3.11306 5.36652 2.49106 9.16352C2.42406 9.57152 2.70106 9.95752 3.11006 10.0245Z" fill="white"/>
<path fill-rule="evenodd" clip-rule="evenodd" d="M15.3801 4.25491C18.5241 4.76991 20.0161 6.26191 20.5311 9.40491C20.5911 9.77391 20.9091 10.0339 21.2701 10.0339C21.3111 10.0339 21.3511 10.0309 21.3921 10.0249C21.8011 9.95691 22.0781 9.57091 22.0111 9.16291C21.3891 5.36591 19.4191 3.39591 15.6221 2.77491C15.2141 2.70691 14.8281 2.98391 14.7611 3.39391C14.6941 3.80291 14.9711 4.18791 15.3801 4.25491Z" fill="white"/>
</svg>
