<svg width="25" height="25" viewBox="0 0 25 25" fill="none" xmlns="http://www.w3.org/2000/svg">
<path fill-rule="evenodd" clip-rule="evenodd" d="M14.6601 13.72C14.9531 14.013 14.9531 14.488 14.6601 14.781C14.5141 14.927 14.3221 15 14.1301 15C13.9381 15 13.7461 14.927 13.5991 14.781L12.2501 13.432L10.9011 14.781C10.7541 14.927 10.5621 15 10.3701 15C10.1791 15 9.98709 14.927 9.84009 14.781C9.54709 14.488 9.54709 14.013 9.84009 13.72L11.1891 12.371L9.84009 11.023C9.54709 10.73 9.54709 10.255 9.84009 9.96203C10.1331 9.66902 10.6081 9.66902 10.9011 9.96203L12.2501 11.311L13.5991 9.96203C13.8921 9.66902 14.3671 9.66902 14.6601 9.96203C14.9531 10.255 14.9531 10.73 14.6601 11.023L13.3111 12.371L14.6601 13.72ZM19.9381 5.43003C19.3311 4.82303 16.0041 2.67603 12.2501 2.67603C8.49709 2.67603 5.16909 4.82303 4.56209 5.43003C3.98109 6.01103 3.98909 6.46403 4.03409 8.97903C4.05309 9.99803 4.07709 11.386 4.07709 13.304C4.07709 19.824 9.40109 22.532 12.2501 22.532C15.1001 22.532 20.4231 19.824 20.4231 13.304C20.4231 11.387 20.4481 9.99903 20.4661 8.98103C20.5111 6.46403 20.5191 6.01103 19.9381 5.43003Z" fill="white"/>
</svg>
