<svg width="25" height="24" viewBox="0 0 25 24" fill="none" xmlns="http://www.w3.org/2000/svg">
<path fill-rule="evenodd" clip-rule="evenodd" d="M12.2532 8.21845C11.8442 7.44545 9.68115 3.58545 7.29015 3.58545C4.89915 3.58545 2.73515 7.44545 2.32615 8.21845C2.06815 8.70645 2.25415 9.31145 2.74215 9.57045C3.22815 9.82545 3.83515 9.64245 4.09415 9.15445C4.68415 8.04245 5.54815 6.85745 6.29015 6.17145V17.2044C6.29015 17.7575 6.73715 18.2044 7.29015 18.2044C7.84315 18.2044 8.29015 17.7575 8.29015 17.2044V6.17145C9.03215 6.85845 9.89615 8.04245 10.4852 9.15445C10.6652 9.49245 11.0122 9.68645 11.3702 9.68645C11.5282 9.68645 11.6892 9.64845 11.8372 9.57045C12.3252 9.31145 12.5112 8.70645 12.2532 8.21845Z" fill="white"/>
<path fill-rule="evenodd" clip-rule="evenodd" d="M21.758 14.4323C21.274 14.1733 20.665 14.3593 20.406 14.8463C19.818 15.9563 18.958 17.1383 18.22 17.8253V6.79535C18.22 6.24335 17.773 5.79535 17.22 5.79535C16.667 5.79535 16.22 6.24335 16.22 6.79535V17.8293C15.478 17.1433 14.614 15.9593 14.024 14.8463C13.765 14.3593 13.155 14.1723 12.672 14.4323C12.184 14.6903 11.998 15.2943 12.256 15.7833C12.665 16.5563 14.828 20.4143 17.22 20.4143C19.602 20.4143 21.765 16.5563 22.174 15.7833C22.432 15.2943 22.246 14.6903 21.758 14.4323Z" fill="white"/>
</svg>
