<svg width="25" height="24" viewBox="0 0 25 24" fill="none" xmlns="http://www.w3.org/2000/svg">
<path fill-rule="evenodd" clip-rule="evenodd" d="M13.1199 4.16929L14.7589 5.81229C14.9049 5.95929 15.0979 6.03329 15.2899 6.03329C15.4809 6.03329 15.6729 5.95929 15.8189 5.81429C16.1129 5.52129 16.1129 5.04629 15.8209 4.75329L12.9009 1.82529C12.6199 1.54229 12.1199 1.54229 11.8389 1.82529L8.91895 4.75329C8.62695 5.04629 8.62695 5.52129 8.92095 5.81429C9.21495 6.10629 9.68895 6.10629 9.98095 5.81229L11.6199 4.16929V7.15729C12.1299 7.14729 12.6299 7.14729 13.1199 7.15729V4.16929Z" fill="white"/>
<path fill-rule="evenodd" clip-rule="evenodd" d="M16.65 7.2871C15.53 7.2071 14.3499 7.16729 13.1199 7.15729L13.12 14.3971C13.12 14.8071 12.78 15.1471 12.37 15.1471C11.96 15.1471 11.62 14.8071 11.62 14.3971L11.6199 7.15729C10.4099 7.16729 9.15 7.2171 7.85 7.2871H7.83C3.8 7.6571 2.5 9.4871 2.5 14.7871C2.5 22.3871 5.35 22.3871 12.25 22.3871C19.15 22.3871 22 22.3871 22 14.7871C22 9.4871 20.7 7.6571 16.65 7.2871Z" fill="white"/>
</svg>
