<svg width="25" height="25" viewBox="0 0 25 25" fill="none" xmlns="http://www.w3.org/2000/svg">
<path fill-rule="evenodd" clip-rule="evenodd" d="M22.1514 7.46961C21.3714 6.62961 18.9714 8.13961 17.6114 9.09961C17.8414 10.0896 17.9514 11.2396 17.9514 12.5396C17.9514 13.8296 17.8414 14.9596 17.6214 15.9496C18.7114 16.7196 20.4914 17.8496 21.5314 17.8496C21.7914 17.8496 22.0114 17.7796 22.1514 17.6196C23.0814 16.6296 23.0814 8.46961 22.1514 7.46961Z" fill="white"/>
<path fill-rule="evenodd" clip-rule="evenodd" d="M9.06137 5.10962C3.59137 5.10962 1.65137 7.05962 1.65137 12.5396C1.65137 18.0196 3.59137 19.9596 9.06137 19.9596C14.5214 19.9596 16.4514 18.0196 16.4514 12.5396C16.4514 7.05962 14.5214 5.10962 9.06137 5.10962Z" fill="white"/>
</svg>
