<svg width="25" height="25" viewBox="0 0 25 25" fill="none" xmlns="http://www.w3.org/2000/svg">
<path fill-rule="evenodd" clip-rule="evenodd" d="M6.58027 11.402H17.9193C18.1963 11.402 18.4193 11.178 18.4193 10.902V8.648C18.4193 5.247 15.6523 2.479 12.2493 2.479C8.84827 2.479 6.08027 5.247 6.08027 8.648V10.902C6.08027 11.178 6.30427 11.402 6.58027 11.402Z" fill="white"/>
<path fill-rule="evenodd" clip-rule="evenodd" d="M19.384 13.4068H5.11597C4.70197 13.4068 4.36597 13.7428 4.36597 14.1568C4.36597 14.5708 4.70197 14.9068 5.11597 14.9068H6.13097C6.47297 17.7088 8.69797 19.9338 11.5 20.2758V21.9788C11.5 22.3928 11.836 22.7288 12.25 22.7288C12.664 22.7288 13 22.3928 13 21.9788V20.2758C15.803 19.9338 18.027 17.7088 18.369 14.9068H19.384C19.798 14.9068 20.134 14.5708 20.134 14.1568C20.134 13.7428 19.798 13.4068 19.384 13.4068Z" fill="white"/>
</svg>
