<svg width="25" height="25" viewBox="0 0 25 25" fill="none" xmlns="http://www.w3.org/2000/svg">
<path fill-rule="evenodd" clip-rule="evenodd" d="M13.7438 9.64264H10.7538C10.3438 9.64264 10.0038 9.30264 10.0038 8.89264C10.0038 8.48264 10.3438 8.14264 10.7538 8.14264H13.7438C14.1538 8.14264 14.4938 8.48264 14.4938 8.89264C14.4938 9.30264 14.1538 9.64264 13.7438 9.64264ZM11.7438 5.37264H12.7538C13.1638 5.37264 13.5038 5.71264 13.5038 6.12264C13.5038 6.53264 13.1638 6.87264 12.7538 6.87264H11.7438C11.3338 6.87264 10.9938 6.53264 10.9938 6.12264C10.9938 5.71264 11.3338 5.37264 11.7438 5.37264ZM12.2538 2.95264C9.00382 2.95264 6.36382 5.59264 6.36382 8.84264V10.9826C6.36382 11.2626 6.58382 11.4826 6.86382 11.4826H17.6338C17.9138 11.4826 18.1338 11.2626 18.1338 10.9826V8.84264C18.1338 5.59264 15.4938 2.95264 12.2538 2.95264Z" fill="white"/>
<path fill-rule="evenodd" clip-rule="evenodd" d="M19.0279 13.3246H5.47192C5.05792 13.3246 4.72192 13.6606 4.72192 14.0746C4.72192 14.4886 5.05792 14.8246 5.47192 14.8246H6.41692C6.75592 17.4696 8.85392 19.5686 11.4999 19.9066V21.5056C11.4999 21.9196 11.8359 22.2556 12.2499 22.2556C12.6639 22.2556 12.9999 21.9196 12.9999 21.5056V19.9076C15.6459 19.5686 17.7439 17.4696 18.0829 14.8246H19.0279C19.4419 14.8246 19.7779 14.4886 19.7779 14.0746C19.7779 13.6606 19.4419 13.3246 19.0279 13.3246Z" fill="white"/>
</svg>
