<svg width="25" height="24" viewBox="0 0 25 24" fill="none" xmlns="http://www.w3.org/2000/svg">
<path fill-rule="evenodd" clip-rule="evenodd" d="M20.1965 5.40848C19.9665 5.06448 19.4985 4.97148 19.1555 5.20348C18.8115 5.43348 18.7195 5.89948 18.9505 6.24448C21.2615 9.69148 21.2615 14.3215 18.9505 17.7655C18.7195 18.1095 18.8115 18.5755 19.1555 18.8065C19.2835 18.8925 19.4285 18.9335 19.5725 18.9335C19.8145 18.9335 20.0515 18.8175 20.1965 18.6015C22.8425 14.6585 22.8425 9.35648 20.1965 5.40848Z" fill="white"/>
<path fill-rule="evenodd" clip-rule="evenodd" d="M16.7644 7.61255C16.4014 7.81155 16.2694 8.26855 16.4704 8.63155C17.6204 10.7165 17.6204 13.3015 16.4704 15.3785C16.2694 15.7405 16.4014 16.1965 16.7634 16.3975C16.8784 16.4615 17.0034 16.4916 17.1264 16.4916C17.3894 16.4916 17.6454 16.3516 17.7834 16.1046C19.1804 13.5816 19.1814 10.4395 17.7834 7.90655C17.5824 7.54355 17.1264 7.41255 16.7644 7.61255Z" fill="white"/>
<path fill-rule="evenodd" clip-rule="evenodd" d="M12.5433 5.11848C10.8373 4.10348 9.26825 5.30848 8.12225 6.18548C7.65225 6.54548 7.20825 6.88548 6.87125 6.99648C6.41325 7.14648 6.01825 7.19448 5.63525 7.24048C4.96825 7.31948 4.27925 7.40148 3.52425 8.04248C2.31525 9.06948 2.31725 10.6975 2.31925 12.0055C2.31725 13.3125 2.31525 14.9405 3.52525 15.9685C4.27925 16.6085 4.96825 16.6905 5.63525 16.7695C6.01825 16.8155 6.41325 16.8635 6.87125 17.0145C7.20825 17.1255 7.65125 17.4655 8.12125 17.8245C8.95225 18.4615 10.0063 19.2685 11.1883 19.2685C11.6353 19.2685 12.1003 19.1535 12.5783 18.8695C13.9443 17.8985 14.4283 16.1015 14.4283 12.0055C14.4283 7.85448 13.9613 6.12248 12.5433 5.11848Z" fill="white"/>
</svg>
